<?xml version="1.0" encoding="UTF-8"?>
<svg width="115px" height="128px" viewBox="0 0 115 128" version="1.1" xmlns="http://www.w3.org/2000/svg" xmlns:xlink="http://www.w3.org/1999/xlink">
    <title>Icon - Purchase - House with Coin $ - 3D@2x</title>
    <defs>
        <polygon id="path-1" points="0.0723485563 0.703081219 77.6460783 0.703081219 77.6460783 86.6512337 0.0723485563 86.6512337"></polygon>
        <polygon id="path-3" points="0.0334756506 0.134176091 72.191441 0.134176091 72.191441 62.2587826 34.8311198 62.2587826 0.0334756506 62.2587826"></polygon>
        <polygon id="path-5" points="0.240965926 0.415688188 38.5932474 0.415688188 38.5932474 50.0192837 0.240965926 50.0192837"></polygon>
        <polygon id="path-7" points="0.240965926 0.414630174 38.6072548 0.414630174 38.6072548 50.0192837 0.240965926 50.0192837"></polygon>
        <polygon id="path-9" points="0.951231852 1.42660165 15.5749652 1.42660165 15.5749652 14.0275482 0.951231852 14.0275482"></polygon>
        <polygon id="path-11" points="0.240965926 0.415688188 38.5932474 0.415688188 38.5932474 50.0192837 0.240965926 50.0192837"></polygon>
    </defs>
    <g id="Icons" stroke="none" stroke-width="1" fill="none" fill-rule="evenodd">
        <g id="Artboard" transform="translate(-1721.000000, -170.000000)">
            <g id="Icon---Purchase---House-with-Coin-$---3D" transform="translate(1721.000000, 170.000000)">
                <g id="Icon---FirstTime-Home-Buyer---House---3D-Copy">
                    <polygon id="Fill-1" fill="#2C3E50" points="0 87.2915687 50.1689498 117.053571 110.892857 81.1012884 60.7239073 51.3392857"></polygon>
                    <polygon id="Fill-2" fill="#2C3E50" points="0 90.0967262 51.3392857 120.133929 51.3392857 116.259921 0 86.25"></polygon>
                    <polygon id="Fill-3" fill="#3D566E" points="49.2857143 116.295523 49.2857143 120.133929 110.892857 83.9276913 110.892857 80.0892857"></polygon>
                    <polygon id="Fill-4" fill="#CFD1D1" points="14.375 89.1563257 50.2855805 109.866071 50.3125 78.2097458 14.4019195 57.5"></polygon>
                    <polygon id="Fill-5" fill="#CFD1D1" points="10.2678571 60.511548 46.2986246 81.1160714 75.9821429 29.8455949 39.9513754 9.24107143"></polygon>
                    <polygon id="Fill-6" fill="#E6EAEB" points="44.1517857 79.9164331 49.3667763 76.9855143 49.3667763 107.8125 98.4903665 80.3351358 98.4903665 49.5866568 103.705357 46.6295691 73.8475094 29.7767857"></polygon>
                    <polygon id="Fill-7" fill="#999999" points="66.1804464 69.8905324 66.1804464 100.625 82.7034821 91.287602 82.7034821 60.5803571"></polygon>
                    <polygon id="Fill-8" fill="#666565" points="67.7329464 69.9670118 67.7052232 97.5446429 81.1787054 90.2115596 81.1787054 62.6339286"></polygon>
                    <polygon id="Fill-9" fill="#7CCCBD" points="66.5387946 70.1999825 66.5110714 96.5178571 78.2657143 89.9249883 78.2657143 63.6607143"></polygon>
                    <path d="M22.89497,64.6875 L22.8150218,64.6875 L22.761723,64.6875 L22.7084242,64.7133371 L22.628476,64.7391742 L21.5625,65.3334276 L21.5891494,65.3075905 L21.6690976,65.2817534 L21.7223964,65.2817534 L21.828994,65.2817534 L21.8822928,65.2817534 L21.962241,65.3075905 L22.0421892,65.3334276 L22.1221374,65.3851019 L28.8910851,69.1831564 L30.3834515,70.0099437 L37.1257497,73.7821612 L37.2056979,73.8596725 L37.2589967,73.8855096 L37.3922437,73.9630209 L37.4455425,74.0405322 L37.4988413,74.1180435 L37.5787895,74.1955549 L37.6320883,74.2730662 L37.6853871,74.3505775 L37.7386859,74.479763 L37.7919847,74.5572743 L37.8452835,74.6606228 L37.8719329,74.7639712 L37.8719329,74.8414825 L37.8985823,74.9448309 L37.8985823,75.0481793 L37.9252317,75.1515278 L37.9252317,91.9456464 L37.8985823,92.0231577 L37.8985823,92.100669 L37.8719329,92.1781803 L37.8719329,92.2556917 L37.8452835,92.3073659 L37.7919847,92.3590401 L37.7386859,92.4107143 L38.7780125,91.842298 L38.8313113,91.7906238 L38.8846101,91.7647866 L38.9112595,91.7131124 L38.9645583,91.6614382 L38.9912077,91.5580898 L39.0178571,91.5064156 L39.0178571,91.4289043 L39.0178571,91.3255559 L39.0178571,74.5572743 L39.0178571,74.4539259 L39.0178571,74.3505775 L38.9912077,74.2472291 L38.9645583,74.1697177 L38.9112595,74.0405322 L38.8846101,73.9630209 L38.8313113,73.8596725 L38.7780125,73.7563241 L38.7247137,73.6529756 L38.6447655,73.6013014 L38.6181161,73.497953 L38.5115185,73.4204417 L38.4315703,73.3687675 L38.3782715,73.2912562 L38.2983233,73.2395819 L38.1917257,73.1879077 L31.4227781,69.4156903 L29.9570611,68.5630658 L23.2147628,64.7908484 L23.1348146,64.7391742 L23.0548664,64.7133371 L22.9482688,64.6875 L22.89497,64.6875 Z M22.3794066,67.2929687 L22.3527572,67.3186384 L22.3261078,67.344308 L22.3261078,67.344308 L22.3261078,67.3956473 L22.3261078,72.1445312 L22.3261078,72.1958705 L22.3261078,72.2215402 L22.3527572,72.2728795 L22.3794066,72.3242187 L22.406056,72.375558 L22.4327054,72.4268973 L22.4593548,72.452567 L22.5126536,72.4782366 L28.8285615,75.969308 L28.8552109,76.0206473 L28.9085097,76.0206473 L28.9351591,76.0206473 L28.9618085,76.0206473 L30.0544339,75.4045759 L30.0277845,75.4045759 L30.0011351,75.4045759 L29.9478363,75.4045759 L29.8945375,75.3789062 L23.605279,71.8621652 L23.5786296,71.8364955 L23.5253308,71.7851562 L23.472032,71.7594866 L23.4453826,71.733817 L23.4453826,71.6824777 L23.4187332,71.6311384 L23.4187332,71.5541295 L23.3920838,71.5284598 L23.3920838,66.8052455 L23.4187332,66.7539062 L23.4187332,66.7282366 L23.4187332,66.702567 L22.3794066,67.2929687 Z M29.5675698,71.0664062 L29.5409204,71.0920759 L29.514271,71.1177455 L29.514271,71.1690848 L29.514271,71.1947545 L29.514271,86.8789062 L29.514271,86.9045759 L29.514271,86.9302455 L29.5409204,87.0072545 L29.5675698,87.0585937 L29.5675698,87.109933 L29.5942192,87.1612723 L29.6741674,87.1612723 L29.7274662,87.186942 L36.0167247,90.703683 L36.0433741,90.7293527 L36.0966729,90.7293527 L36.1233223,90.7293527 L36.1499717,90.7293527 L37.2159477,90.1389509 L37.2159477,90.1389509 L37.1892983,90.1389509 L37.1359995,90.1389509 L37.0827007,90.1132812 L30.7667928,86.5965402 L30.7667928,86.5708705 L30.713494,86.5195312 L30.6868446,86.4938616 L30.6601952,86.4425223 L30.6335458,86.4168527 L30.6068964,86.3398437 L30.6068964,86.2885045 L30.580247,86.2628348 L30.580247,70.578683 L30.6068964,70.5530134 L30.6068964,70.5273437 L30.6335458,70.5016741 L30.6601952,70.4760045 L29.5675698,71.0664062 Z M22.3794066,73.2226562 L22.3527572,73.2483259 L22.3261078,73.2739955 L22.3261078,73.2996652 L22.3261078,73.3510045 L22.3261078,82.6434152 L22.3261078,82.6947545 L22.3261078,82.7460937 L22.3527572,82.797433 L22.3794066,82.8487723 L22.406056,82.8487723 L22.4327054,82.9001116 L22.4593548,82.9514509 L22.5126536,83.0027902 L28.8285615,86.4938616 L28.8552109,86.5195312 L28.9085097,86.5452009 L28.9351591,86.5195312 L28.9618085,86.5195312 L30.0544339,85.9034598 L30.0277845,85.9034598 L30.0011351,85.9034598 L29.9478363,85.9034598 L29.8945375,85.8777902 L23.605279,82.3867187 L23.5786296,82.3610491 L23.5253308,82.3097098 L23.472032,82.2583705 L23.4453826,82.2327009 L23.4453826,82.1813616 L23.4187332,82.155692 L23.4187332,82.1043527 L23.3920838,82.0273437 L23.3920838,72.734933 L23.4187332,72.7092634 L23.4187332,72.6835937 L23.4453826,72.6579241 L23.4453826,72.6065848 L22.3794066,73.2226562 Z" id="Fill-10" fill="#D19917"></path>
                    <g id="Group-27">
                        <path d="M31.3090535,70.8757305 L31.3090535,86.9965107 C31.3090535,87.1286483 31.4150339,87.2872133 31.5210143,87.3400683 L37.7738575,90.960637 C37.906333,91.0399195 37.9858183,90.9870645 37.9858183,90.854927 L37.9858183,74.7341468 C37.9858183,74.6020092 37.906333,74.4170167 37.7738575,74.3641616 L31.5210143,70.743593 C31.4150339,70.690738 31.3090535,70.743593 31.3090535,70.8757305" id="Fill-11" fill="#2192FC"></path>
                        <path d="M29.8334804,86.5520422 L29.8334804,76.9852841 C29.8334804,76.8531465 29.7539951,76.6945815 29.6215196,76.615299 L23.3686765,73.0211578 C23.2626961,72.9418753 23.1567157,72.9947303 23.1567157,73.1268678 L23.1567157,82.6936259 C23.1567157,82.8257635 23.2626961,82.9843285 23.3686765,83.063611 L29.6215196,86.6841797 C29.7539951,86.7370347 29.8334804,86.6841797 29.8334804,86.5520422" id="Fill-13" fill="#2192FC"></path>
                        <path d="M29.8334804,75.0567257 L29.8334804,70.1676367 C29.8334804,70.0619266 29.7539951,69.9033616 29.6215196,69.8240791 L23.3686765,66.2299379 C23.2626961,66.1506554 23.1567157,66.2035104 23.1567157,66.3356479 L23.1567157,71.1983095 C23.1567157,71.330447 23.2626961,71.4890121 23.3686765,71.5418671 L29.6215196,75.1624358 C29.7539951,75.2417183 29.8334804,75.1888633 29.8334804,75.0567257" id="Fill-15" fill="#2192FC"></path>
                        <path d="M30.0748105,70.6499307 L30.0748105,86.5801499 C30.0748105,86.6844394 30.1531984,86.866946 30.2838448,86.9190908 L36.4503568,90.4910057 C36.5548739,90.5431504 36.6593911,90.4910057 36.6593911,90.3606438 L36.6593911,74.456497 C36.6593911,74.3261352 36.5548739,74.1697009 36.4503568,74.1175562 L30.2838448,70.5456412 C30.1531984,70.4674241 30.0748105,70.5195689 30.0748105,70.6499307 L30.0748105,70.6499307 Z M29.029639,85.9804854 L29.029639,76.5422868 C29.029639,76.4119249 28.9251218,76.2554907 28.8206047,76.1772736 L22.6540927,72.6053586 C22.5234463,72.5532139 22.4450584,72.6053586 22.4450584,72.7357205 L22.4450584,82.1739191 C22.4450584,82.3042809 22.5234463,82.4607152 22.6540927,82.5389323 L28.8206047,86.0847749 C28.9251218,86.162992 29.029639,86.1108472 29.029639,85.9804854 L29.029639,85.9804854 Z M29.029639,74.8475826 L29.029639,70.0763385 C29.029639,69.9459767 28.9251218,69.7895425 28.8206047,69.7113253 L22.6540927,66.1394104 C22.5234463,66.0872657 22.4450584,66.1394104 22.4450584,66.2697723 L22.4450584,71.093161 C22.4450584,71.1974505 22.5234463,71.3538848 22.6540927,71.4060295 L28.8206047,74.9779445 C28.9251218,75.0300892 29.029639,74.9779445 29.029639,74.8475826 L29.029639,74.8475826 Z M30.2838448,69.3463121 L36.8945547,73.1789508 C37.1297183,73.3093127 37.3126233,73.4918193 37.4432697,73.752543 C37.6000454,74.0132667 37.7045626,74.3000628 37.7045626,74.5347141 L37.7045626,91.4817558 C37.7045626,91.7424795 37.6000454,91.8989138 37.4432697,91.9771309 C37.3126233,92.0814204 37.1297183,92.055348 36.8945547,91.9249861 L30.2838448,88.1184199 L28.8206047,87.3101763 L22.1837655,83.4775377 C21.9747312,83.3471758 21.7918262,83.1385968 21.6350505,82.8778731 C21.4782747,82.6171494 21.3998869,82.3303533 21.3998869,82.0696296 L21.3998869,65.1486603 C21.3998869,64.8879366 21.4782747,64.7054299 21.6350505,64.6532852 C21.7918262,64.5750681 21.9747312,64.5750681 22.1837655,64.6793576 L28.8206047,68.5119962 L30.2838448,69.3463121 Z" id="Fill-17" fill="#FAC13C"></path>
                        <polygon id="Fill-19" fill="#D14232" points="77.1676059 31.4829341 35.6664781 7.67674349 66.5173488 25.5447009 108.018477 49.3508915"></polygon>
                        <g id="Group-23" transform="translate(0.000000, 0.561645)">
                            <mask id="mask-2" fill="white">
                                <use xlink:href="#path-1"></use>
                            </mask>
                            <g id="Clip-22"></g>
                            <polygon id="Fill-21" fill="#E74C3C" mask="url(#mask-2)" points="77.6460783 24.3887868 36.1662394 0.692478844 0.0723485563 62.9284197 41.5789832 86.6512337"></polygon>
                        </g>
                        <g id="Group-26" transform="translate(41.780732, 24.956268)">
                            <mask id="mask-4" fill="white">
                                <use xlink:href="#path-3"></use>
                            </mask>
                            <g id="Clip-25"></g>
                            <polygon id="Fill-24" fill="#C0392B" mask="url(#mask-4)" points="66.7419765 24.1585128 72.1941136 21.0364074 36.00689 0.134176091 0.0334756506 62.2587826 5.45888658 59.1366771 36.00689 6.40484548"></polygon>
                        </g>
                    </g>
                </g>
                <g id="Group-46" transform="translate(24.000000, 71.000000)">
                    <polygon id="Fill-93" fill="#9C9C9C" points="24.7426844 17.6360457 22.2213511 16.1771807 22.2213511 15.0549769 24.7426844 16.5138419 26.8858178 15.2653901 27.5581733 15.6441339 28.2165215 16.0088501 28.8608622 16.3314837 29.505203 16.6400898 30.1215289 16.9206408 30.7238474 17.1731366 31.3261659 17.3975774 31.914477 17.6079906 32.4887807 17.7763212 33.0770919 17.9306242 33.665403 18.0428446 34.2677215 18.1270099 34.87004 18.1690926 35.4723585 18.1971477 36.0886844 18.1831201 36.7050104 18.1410375 37.3073289 18.0708997 37.9376622 17.9446518 38.5679956 17.7903488 39.2123363 17.5939631 39.856677 17.3554948 40.5010178 17.0749438 41.1593659 16.7523102 41.8177141 16.3875939 42.3359881 16.0789879 42.81224 15.7844094 43.2324622 15.4758033 43.6106622 15.1812248 43.94684 14.9006738 44.2269881 14.6060953 44.4651141 14.3255444 44.6612178 14.0590209 44.8293067 13.7924975 44.9413659 13.5119466 45.0254104 13.2594507 45.0674326 12.9788997 45.0674326 14.1151311 45.0254104 14.3816545 44.9413659 14.648178 44.8293067 14.9147014 44.6612178 15.1812248 44.4651141 15.4617758 44.2269881 15.7423267 43.94684 16.0228777 43.6106622 16.3034287 43.2324622 16.5980072 42.81224 16.9066132 42.3359881 17.2152193 41.8177141 17.5097978 41.1593659 17.8885416 40.5010178 18.2111752 39.856677 18.4917262 39.2123363 18.7301945 38.5679956 18.9265802 37.9376622 19.0808832 37.3073289 19.1931036 36.7050104 19.2632413 36.0886844 19.305324 35.4723585 19.3193515 34.87004 19.305324 34.2677215 19.2492138 33.665403 19.1650485 33.0770919 19.0528281 32.4887807 18.8985251 31.914477 18.7301945 31.3261659 18.5197813 30.7238474 18.2953405 30.1215289 18.0428446 29.505203 17.7622937 28.8608622 17.4536876 28.2165215 17.131054 27.5581733 16.7803653 26.8858178 16.4016215"></polygon>
                    <polygon id="Fill-317" fill="#D19917" points="13.0058778 22.2048182 13.0058778 14.4896667 13.4261 14.9806309 14.0844481 15.6679807 14.7988259 16.3272755 15.5692333 16.9725427 16.4096778 17.6037824 17.3201593 18.2069669 18.272663 18.796124 19.2952037 19.3431983 20.3317519 19.8622176 21.4243296 20.3531818 22.5449222 20.8020634 23.6795222 21.2228898 24.8561444 21.6016336 26.0467741 21.9382948 27.2654185 22.2328733 27.6716333 22.3310661 27.6716333 30.0462176 27.2654185 29.9620523 26.0467741 29.6534463 24.8561444 29.3167851 23.6795222 28.9380413 22.5449222 28.5172149 21.4243296 28.0683333 20.3317519 27.5913967 19.2952037 27.0583499 18.272663 26.5112755 17.3201593 25.9221185 16.4096778 25.3189339 15.5692333 24.6876942 14.7988259 24.042427 14.0844481 23.3831322 13.4261 22.7098099"></polygon>
                    <polygon id="Fill-323" fill="#F0B11D" points="42.2659511 7.38190799 35.5984252 3.53835978 34.940077 3.18767107 34.2397067 2.89309256 33.5113215 2.65462424 32.7689289 2.45823857 31.9845141 2.33199063 31.1720844 2.27588044 30.3596548 2.26185289 29.505203 2.30393554 28.6367437 2.41615592 27.7402696 2.57045895 26.8297881 2.80892727 25.9052993 3.08947824 24.966803 3.44016694 24.0002919 3.86099339 23.0197733 4.33793003 22.0392548 4.87097686 21.0447289 5.47416143 20.0782178 6.11942865 19.1257141 6.82080606 18.1732104 7.56426612 17.2487215 8.34980882 16.33824 9.16340661 15.4417659 10.0331146 14.5733067 10.9308777 13.7188548 11.8707234 12.8924178 12.8386242 12.0939956 13.8345802 11.3235881 14.8585912 10.5671881 15.9106573 9.83880296 17.0048061 9.13843259 18.0989548 8.48008444 19.2071311 7.8357437 20.3433625 7.24743259 21.507649 6.67312889 22.6719355 6.14084741 23.8502496 5.63658074 25.0425912 5.1743363 26.2349328 4.75411407 27.4413019 4.36190667 28.6476711 4.02572889 29.8540402 3.71756593 31.0463818 3.46543259 32.252751 3.24131407 33.4450926 3.08723259 34.6374342 2.96116593 35.8157482 2.87712148 36.9940623 2.86311407 38.1443212 2.87712148 39.2665251 2.96116593 40.3606738 3.08723259 41.3987124 3.24131407 42.3946683 3.46543259 43.334514 3.71756593 44.2463047 4.02572889 45.1019851 4.36190667 45.9015554 4.75411407 46.6730705 5.1743363 47.3744479 5.63658074 48.0337427 6.14084741 48.6509548 6.67312889 49.2120567 7.24743259 49.731076 7.8357437 50.1799576 8.48008444 50.5867565 15.133603 54.4303047 14.5032696 54.0235058 13.9009511 53.5746242 13.3406548 53.0696325 12.7943659 52.5085306 12.3041067 51.8913185 11.8418622 51.2320237 11.4076326 50.5166187 11.0294326 49.7591311 10.6932548 48.9455333 10.3850919 48.0898529 10.1329585 47.1920898 9.90884 46.2382165 9.74075111 45.2562882 9.61468444 44.204222 9.54464741 43.1241008 9.53064 42.001897 9.54464741 40.8376105 9.61468444 39.673324 9.74075111 38.4950099 9.90884 37.3026683 10.1329585 36.1103267 10.3850919 34.9039576 10.6932548 33.6975884 11.0294326 32.4912193 11.4076326 31.2848501 11.8418622 30.0925085 12.3041067 28.8861394 12.7943659 27.7078253 13.3406548 26.5295113 13.9009511 25.3652248 14.5032696 24.2009383 15.133603 23.0647069 15.8059585 21.9565306 16.5063289 20.8483543 17.2207067 19.7682331 17.9771067 18.7161669 18.7615215 17.6921559 19.5599437 16.6962 20.3863807 15.7282992 21.2408326 14.7884534 22.1092919 13.8766628 23.0057659 13.0209824 23.90224 12.193357 24.8407363 11.4218419 25.7792326 10.6643543 26.7457437 9.97700441 27.7122548 9.33173719 28.7067807 8.72855262 29.7013067 8.18147824 30.6678178 7.7045416 31.6203215 7.2977427 32.5728252 6.94705399 33.4973141 6.65247548 34.4077956 6.42803471 35.2902622 6.25970413 36.1587215 6.16151129 37.0131733 6.1054011 37.8536178 6.11942865 38.65204 6.18956639 39.4224474 6.31581433 40.1788474 6.49817245 40.8932252 6.73664077 41.5935956 7.04524683"></polygon>
                    <g id="Group-327" transform="translate(9.285472, 5.690333)">
                        <mask id="mask-6" fill="white">
                            <use xlink:href="#path-5"></use>
                        </mask>
                        <g id="Clip-326"></g>
                        <path d="M19.4171067,44.1852264 C14.8927141,46.808378 10.7745363,47.0608738 7.81897333,45.3354854 C4.84940296,43.6241245 3.01443259,39.9348793 3.01443259,34.7026039 C3.01443259,29.4703284 4.84940296,23.6629234 7.81897333,18.5007857 C10.7745363,13.366703 14.8927141,8.86386006 19.4171067,6.24070854 C23.9414993,3.63158457 28.0456696,3.37908871 31.01524,5.09044959 C33.9848104,6.80181047 35.8197807,10.4910556 35.8197807,15.7373587 C35.8197807,20.9696342 33.9848104,26.7770391 31.01524,31.9251493 C28.0456696,37.0732595 23.9414993,41.5620749 19.4171067,44.1852264 M19.4171067,3.04242755 C8.82750667,9.15843857 0.240965926,24.0556948 0.240965926,36.3017444 C0.240965926,48.5618215 8.82750667,53.5275736 19.4171067,47.397535 C30.0067067,41.2674964 38.5932474,26.3702402 38.5932474,14.1241906 C38.5932474,1.87814105 30.0067067,-3.08761102 19.4171067,3.04242755" id="Fill-325" fill="#F0B11D" mask="url(#mask-6)"></path>
                    </g>
                    <g id="Group-330" transform="translate(9.285472, 5.690333)">
                        <mask id="mask-8" fill="white">
                            <use xlink:href="#path-7"></use>
                        </mask>
                        <g id="Clip-329"></g>
                        <path d="M19.4171067,3.04102479 C8.82750667,9.17106336 0.240965926,24.054292 0.240965926,36.3143691 C0.240965926,48.5604187 8.82750667,53.5261708 19.4171067,47.3961322 C30.0067067,41.2801212 38.6072548,26.382865 38.6072548,14.1368154 C38.6072548,1.87673829 30.0067067,-3.08901377 19.4171067,3.04102479" id="Fill-328" fill="#F0B11D" mask="url(#mask-8)"></path>
                    </g>
                    <polygon id="Fill-331" fill="#F0B11D" points="28.7025785 49.8755598 25.6769785 48.1221163 26.517423 47.6171245 27.34386 47.0560226 28.170297 46.4668656 28.9827267 45.8215983 29.7671415 45.1623036 30.5515563 44.4609262 31.3079563 43.7174661 32.0643563 42.945951 32.7927415 42.1463807 33.4931119 41.3187554 34.1794748 40.4630749 34.837823 39.5793394 35.4821637 38.6815763 36.112497 37.7557581 36.7008081 36.8159124 37.2751119 35.8620391 40.3007119 37.6154826 39.7404156 38.5693559 39.138097 39.5092017 38.5217711 40.4350198 37.8774304 41.3327829 37.2050748 42.2165185 36.5327193 43.0721989 35.8183415 43.8998242 35.0899563 44.6853669 34.3475637 45.4709096 33.5771563 46.2003421 32.8067489 46.9157471 32.0083267 47.5750419 31.195897 48.2203091 30.3834674 48.8094661 29.543023 49.370568"></polygon>
                    <g id="Group-339" transform="translate(13.126213, 41.682069)">
                        <mask id="mask-10" fill="white">
                            <use xlink:href="#path-9"></use>
                        </mask>
                        <g id="Clip-338"></g>
                        <polygon id="Fill-337" fill="#F0B11D" mask="url(#mask-10)" points="3.97683185 9.34515262 0.951231852 7.59170909 1.51152815 7.8862876 2.11384667 8.15281102 2.73017259 8.34919669 3.37451333 8.50349972 4.03286148 8.61572011 4.73323185 8.68585785 5.43360222 8.68585785 6.16198741 8.64377521 6.90438 8.55960992 7.67478741 8.41933444 8.44519481 8.20892121 9.24361704 7.97045289 10.0420393 7.67587438 10.8684763 7.31115813 11.6949133 6.90435923 12.5493652 6.44145014 15.5749652 8.19489366 14.7345207 8.65780275 13.8940763 9.06460165 13.0676393 9.41529036 12.269217 9.72389642 11.4707948 9.96236474 10.7003874 10.172778 9.92998 10.3130534 9.20159481 10.3972187 8.45920222 10.4393014 7.75883185 10.4252738 7.07246889 10.3691636 6.40011333 10.2569433 5.75577259 10.1026402 5.13944667 9.90625455 4.55113556 9.63973113"></polygon>
                    </g>
                    <path d="M27.7724867,49.3411102 C32.3108867,46.7179587 36.4010496,42.2291433 39.37062,37.0810331 C42.3401904,31.9329229 44.1751607,26.1255179 44.1751607,20.8792149 C44.1751607,15.6469394 42.3401904,11.9576942 39.37062,10.2463333 C36.4010496,8.53497245 32.3108867,8.77344077 27.7724867,11.3965923 C23.2480941,14.0197438 19.1439237,18.5225868 16.1743533,23.6566694 C13.204783,28.8188072 11.3698126,34.6121846 11.3698126,39.8584876 C11.3698126,45.0907631 13.204783,48.7800083 16.1743533,50.4913691 C19.1439237,52.2167576 23.2480941,51.9642617 27.7724867,49.3411102" id="Fill-340" fill="#E6EAEB"></path>
                    <polygon id="Fill-342" fill="#9C9C9C" points="27.4447133 47.8415653 26.4641948 47.2804634 26.4641948 44.4609262 27.4447133 45.0360556"></polygon>
                    <polygon id="Fill-344" fill="#9C9C9C" points="17.7599919 40.6776964 21.752103 38.363151 22.7326215 38.9242529 18.726503 41.2387983 18.7685252 42.1786441 18.7685252 42.739746 18.79654 43.2727928 18.8525696 43.763757 18.9226067 44.2126386 19.0066511 44.633465 19.1187104 45.0262364 19.244777 45.3769251 19.3988585 45.6855311 19.5669474 45.9660821 19.7490437 46.218578 19.9451474 46.4430187 20.1552585 46.6253769 20.379377 46.7937074 19.4128659 46.2326055 19.1887474 46.0642749 18.9646289 45.8819168 18.7685252 45.657476 18.5864289 45.4049802 18.41834 45.1244292 18.2782659 44.8017956 18.1381919 44.4651344 18.04014 44.0723631 17.9420881 43.6515366 17.8720511 43.2026551 17.8160215 42.7116909 17.7880067 42.1786441 17.7880067 41.6175421"></polygon>
                    <polygon id="Fill-346" fill="#9C9C9C" points="26.4655956 40.4785052 26.4655956 32.5389129 27.4461141 33.1000149 27.4461141 41.0396072 27.0118844 41.2500204 26.6336844 41.4464061 26.2694919 41.6287642 25.9473215 41.7830672 25.6531659 41.9233427 25.4010326 42.0355631 25.1909215 42.1477835 24.9948178 42.2179212 24.8267289 42.288059 24.65864 42.3441691 24.4905511 42.3862518 24.3364696 42.4143069 24.1823881 42.4283344 24.0423141 42.4283344 23.90224 42.4143069 23.7621659 42.3862518 23.6360993 42.3441691 23.5100326 42.2740314 22.5435215 41.7129295 22.6695881 41.7830672 22.7956548 41.8251499 22.9217215 41.853205 23.0617956 41.853205 23.215877 41.853205 23.3559511 41.853205 23.52404 41.8251499 23.6781215 41.7830672 23.8462104 41.726957 24.0283067 41.6568193 24.210403 41.572654 24.4205141 41.4744612 24.6866548 41.3482132 24.9808104 41.2219653 25.3029807 41.0676623 25.6531659 40.8853041 26.0453733 40.6889185"></polygon>
                    <polygon id="Fill-348" fill="#9C9C9C" points="26.4655956 14.8684105 28.9869289 13.4095455 29.9674474 13.9846749 27.4461141 15.4295124 27.4461141 17.9123884 26.7737585 18.3051598 26.1434252 18.6979311 25.5411067 19.0907025 24.9527956 19.4975014 24.4065067 19.8902727 23.8742252 20.2970716 23.3839659 20.7038705 22.9217215 21.1106694 22.4734844 21.5174683 22.0532622 21.9523223 21.6610548 22.4152314 21.2828548 22.892168 20.946677 23.3831322 20.6245067 23.9021515 20.3303511 24.4351983 20.050203 24.9822727 19.812077 25.5574022 19.6019659 26.1605868 19.4198696 26.7918264 19.2657881 27.4370937 19.1537289 28.110416 19.0696844 28.8258209 19.0276622 29.5552534 19.0136548 30.312741 19.0136548 30.9018981 19.0416696 31.463 19.0976993 31.9820193 19.1677363 32.4449284 19.2377733 32.8938099 19.3498326 33.2725537 19.4618919 33.6232424 19.6019659 33.945876 19.7560474 34.1983719 19.9381437 34.4508678 20.12024 34.6472534 20.3303511 34.815584 19.3498326 34.2544821 19.1537289 34.0861515 18.9576252 33.8757383 18.7895363 33.6512975 18.6214474 33.3707466 18.4813733 33.0621405 18.3693141 32.7114518 18.2712622 32.332708 18.1872178 31.8838264 18.1171807 31.4068898 18.0751585 30.9018981 18.0331363 30.3407961 18.0331363 29.7516391 18.0471437 28.980124 18.1031733 28.264719 18.1872178 27.549314 18.299277 26.8759917 18.4393511 26.2307245 18.6214474 25.5994848 18.8315585 24.9963003 19.0836919 24.4211708 19.3498326 23.8740964 19.6439881 23.3410496 19.9661585 22.8220303 20.3163437 22.3310661 20.6805363 21.8541295 21.0727437 21.3912204 21.5069733 20.9563664 21.941203 20.5355399 22.4034474 20.128741 22.9077141 19.7359697 23.4259881 19.3291708 23.9862844 18.9363994 24.5605881 18.5296006 25.1629067 18.1368292 25.8072474 17.7440579 26.4655956 17.3512865"></polygon>
                    <polygon id="Fill-352" fill="#9C9C9C" points="34.1808756 21.9228645 33.200357 21.3617625 33.200357 21.3056523 33.1863496 21.2495421 33.1863496 21.193432 33.1863496 21.1232942 33.1723422 21.0531565 33.1723422 20.9970463 33.1723422 20.912881 33.1723422 20.8427433 33.1583348 20.3798342 33.1163126 19.9730353 33.060283 19.6223466 32.9902459 19.3137405 32.8781867 19.0612446 32.75212 18.864859 32.6120459 18.7245835 33.5925644 19.2997129 33.7326385 19.4399884 33.8587052 19.6223466 33.956757 19.8748424 34.0408015 20.1834485 34.0968311 20.5341372 34.1388533 20.9409361 34.1528607 21.4038452 34.1528607 21.4739829 34.1528607 21.5581482 34.1528607 21.628286 34.1528607 21.6843961 34.1668681 21.7545339 34.1668681 21.8106441 34.1668681 21.8667543"></polygon>
                    <polygon id="Fill-354" fill="#9C9C9C" points="33.1205148 30.1430077 32.9804407 30.0307873 33.9609593 30.5918893 34.1010333 30.7041096 34.2271 30.8443851 34.3251519 31.0267433 34.4232037 31.2652116 34.5072481 31.5177074 34.5632778 31.8263135 34.6053 32.1770022 34.6333148 32.5417185 34.6333148 32.9625449 34.6193074 33.5096193 34.5772852 34.0286386 34.5072481 34.5336303 34.3951889 34.9965394 34.2691222 35.4313934 34.1010333 35.8522198 33.9049296 36.2449912 33.6808111 36.5956799 33.4146704 36.932341 33.1345222 37.2830298 32.8263593 37.6056634 32.4621667 37.928297 32.0839667 38.2509306 31.6637444 38.5595366 31.2155074 38.8541152 30.7392556 39.1346661 29.9548407 39.5835477 28.9883296 39.0224457 29.758737 38.5735642 30.2349889 38.2930132 30.6832259 37.9844072 31.1034481 37.6758011 31.4816481 37.367195 31.8458407 37.0445614 32.1680111 36.7079003 32.4481593 36.3712391 32.7002926 36.034578 32.9244111 35.6838893 33.1205148 35.2911179 33.2886037 34.8702915 33.4286778 34.4354375 33.5267296 33.9585008 33.6107741 33.4675366 33.6527963 32.9485174 33.6668037 32.401443 33.6668037 31.9806165 33.6387889 31.6018727 33.5967667 31.2652116 33.5267296 30.9566055 33.4426852 30.6900821 33.3586407 30.4656413 33.2465815 30.2832832"></polygon>
                    <polygon id="Fill-356" fill="#9C9C9C" points="26.4655956 28.6013802 26.4655956 21.4052479 27.4461141 21.9663499 27.4461141 29.1624821 26.8998252 29.4710882 26.3955585 29.723584 25.9193067 29.9339972 25.4990844 30.0883003 25.0928696 30.2005207 24.728677 30.2706584 24.4065067 30.2987135 24.1123511 30.284686 23.8462104 30.2005207 23.6220919 30.0602452 22.6555807 29.4991433 22.8796993 29.6394187 23.1318326 29.7095565 23.4259881 29.7376116 23.7621659 29.7095565 24.1263585 29.6394187 24.5185659 29.5271983 24.9527956 29.3588678 25.41504 29.1624821 25.9193067 28.8959587"></polygon>
                    <polygon id="Fill-358" fill="#9C9C9C" points="29.9618444 27.8074209 28.9953333 27.246319 29.6957037 26.8675752 30.3540519 26.530914 30.9983926 26.222308 31.6007111 25.941757 32.1610074 25.7032887 32.7072963 25.4788479 33.1975556 25.2964898 33.6738074 25.1562143 34.108037 25.0299664 34.5282593 24.9598287 34.9204667 24.9458011 35.2986667 24.9738562 35.6488519 25.0439939 35.9850296 25.1562143 36.2931926 25.3245449 37.2737111 25.8856468 36.9655481 25.7313438 36.6293704 25.6050959 36.2791852 25.5349581 35.9009852 25.506903 35.5087778 25.5209306 35.0885556 25.5910683 34.6403185 25.7173163 34.1780741 25.8716193 33.6738074 26.0539774 33.1415259 26.2643906 32.5812296 26.502859 31.9789111 26.7834099 31.3345704 27.092016 30.6622148 27.4427047"></polygon>
                    <path d="M27.4447133,21.9719609 L26.8283874,22.3226496 C25.9459207,22.8416689 25.231543,23.3326331 24.7132689,23.7674871 C24.1949948,24.202341 23.7747726,24.7494154 23.4666096,25.3946826 C23.1584467,26.0539774 23.0183726,26.8956303 23.0183726,27.9196413 C23.0183726,29.3785063 23.3825652,30.1500215 24.1109504,30.2762694 C24.8393356,30.4025174 25.9599281,30.0237736 27.4447133,29.1680931 L27.4447133,21.9719609 Z M29.9660467,31.6369416 L29.9660467,39.5765339 L30.7364541,39.1416799 C32.0671578,38.3701647 33.0336689,37.5285118 33.6780096,36.5886661 C34.3223504,35.6768755 34.6445207,34.4705063 34.6445207,32.9695587 C34.6445207,31.7912446 34.4624244,31.033757 34.0982319,30.6970959 C33.7340393,30.3604347 33.2717948,30.2762694 32.6974911,30.4586275 C32.1231874,30.6409857 31.2127059,31.033757 29.9660467,31.6369416 L29.9660467,31.6369416 Z M29.9660467,20.5130959 L29.9660467,27.8074209 C31.8850615,26.7693824 33.4398837,26.068005 34.6445207,25.7173163 C35.8491578,25.3385725 36.8156689,25.4788479 37.5580615,26.0960601 C38.3004541,26.7132722 38.6646467,28.0599168 38.6646467,30.1079388 C38.6646467,32.1980435 38.3985059,34.0075972 37.8662244,35.4945174 C37.333943,36.995465 36.4934985,38.3421096 35.3588985,39.5063961 C34.2102911,40.6987377 32.6834837,41.8910793 30.7364541,43.1255036 L29.9660467,43.5743851 L29.9660467,46.3939223 L27.4447133,47.8387598 L27.4447133,45.0332501 C26.1140096,45.7907377 24.9373874,46.3658672 23.8868319,46.7305835 C22.8502837,47.0952997 21.9398022,47.2075201 21.1834022,47.0812722 C20.4129948,46.9409967 19.8246837,46.4921152 19.3904541,45.6925449 C18.9702319,44.8929747 18.7601207,43.7286882 18.7601207,42.1856579 L18.7321059,41.2458121 L22.7382244,38.9172391 C22.7382244,40.0955532 22.8082615,40.9372061 22.9763504,41.4702529 C23.1444393,42.0032997 23.3965726,42.2978782 23.7607652,42.3960711 C24.1249578,42.4662088 24.5311726,42.4241262 24.993417,42.2137129 C25.4556615,42.0313548 26.2680911,41.6385835 27.4447133,41.0353989 L27.4447133,33.0958066 C25.9038985,33.8813493 24.6712467,34.4424512 23.7607652,34.7931399 C22.8502837,35.1298011 22.0378541,35.2700766 21.3094689,35.1859113 C20.5670763,35.1157736 20.00678,34.6949471 19.6005652,33.9374595 C19.2083578,33.1799719 19.0122541,31.9595752 19.0122541,30.3043245 C19.0122541,28.2563025 19.3624393,26.4888314 20.0628096,24.9878837 C20.7491726,23.4869361 21.7016763,22.1964017 22.9203207,21.1022529 C24.1249578,20.0221317 25.6377578,18.956038 27.4447133,17.9179994 L27.4447133,15.4351234 L29.9660467,13.9762584 L29.9660467,16.4591344 C31.9831133,15.3930408 33.5379356,14.7197185 34.6585281,14.453195 C35.7651133,14.1726441 36.6195652,14.4111124 37.1938689,15.1826275 C37.78218,15.9541427 38.090343,17.4410628 38.090343,19.6574154 L34.1822763,21.9298782 C34.1542615,21.7896028 34.1542615,21.6212722 34.1542615,21.3968314 C34.1542615,20.106297 33.9021281,19.3628369 33.4118689,19.1945063 C32.935617,19.0261758 32.10918,19.2786716 30.9465652,19.9379664 L29.9660467,20.5130959 Z" id="Fill-360" fill="#AEBEBF"></path>
                    <g id="Group-364" transform="translate(9.285472, 5.690333)">
                        <mask id="mask-12" fill="white">
                            <use xlink:href="#path-11"></use>
                        </mask>
                        <g id="Clip-363"></g>
                        <path d="M19.4171067,44.1852264 C14.8927141,46.808378 10.7745363,47.0608738 7.81897333,45.3354854 C4.84940296,43.6241245 3.01443259,39.9348793 3.01443259,34.7026039 C3.01443259,29.4703284 4.84940296,23.6629234 7.81897333,18.5007857 C10.7745363,13.366703 14.8927141,8.86386006 19.4171067,6.24070854 C23.9414993,3.63158457 28.0456696,3.37908871 31.01524,5.09044959 C33.9848104,6.80181047 35.8197807,10.4910556 35.8197807,15.7373587 C35.8197807,20.9696342 33.9848104,26.7770391 31.01524,31.9251493 C28.0456696,37.0732595 23.9414993,41.5620749 19.4171067,44.1852264 M19.4171067,3.04242755 C8.82750667,9.15843857 0.240965926,24.0556948 0.240965926,36.3017444 C0.240965926,48.5618215 8.82750667,53.5275736 19.4171067,47.397535 C30.0067067,41.2674964 38.5932474,26.3702402 38.5932474,14.1241906 C38.5932474,1.87814105 30.0067067,-3.08761102 19.4171067,3.04242755" id="Fill-362" fill="#FAC13C" mask="url(#mask-12)"></path>
                    </g>
                    <polygon id="Fill-365" fill="#D19917" points="3.93608148 44.9645152 10.6176148 48.8220909 10.3934963 48.2048788 10.1273556 47.3071157 9.91724444 46.3532424 9.74915556 45.3572865 9.62308889 44.3192479 9.55305185 43.2250992 9.52503704 42.1028953 9.55305185 40.9386088 9.62308889 39.7743223 9.74915556 38.5819807 9.91724444 37.3896391 10.1273556 36.1972975 10.3934963 34.9909284 10.6876519 33.7845592 11.037837 32.5781901 11.1639037 32.1713912 4.49637778 28.3138154 4.3563037 28.7206143 4.02012593 29.9269835 3.71196296 31.1333526 3.45982963 32.3397218 3.23571111 33.5320634 3.06762222 34.724405 2.95556296 35.9167466 2.87151852 37.0810331 2.8435037 38.2453196 2.87151852 39.3675234 2.95556296 40.4476446 3.06762222 41.4997107 3.23571111 42.4956667 3.45982963 43.4495399 3.71196296 44.347303"></polygon>
                    <polygon id="Fill-367" fill="#FAC13C" points="31.9708593 1.96385675 31.4385778 1.99191185 30.5701185 2.09010468 29.6736444 2.25843526 28.763163 2.49690358 27.8386741 2.77745455 26.9001778 3.12814325 25.9336667 3.5489697 24.9671556 4.02590634 23.9726296 4.57298072 22.9781037 5.17616529 22.0115926 5.80740496 21.0450815 6.50878237 20.0925778 7.25224242 19.1540815 8.03778512 19 8.2061157 25.6675259 12.0636915 25.8356148 11.8953609 26.7741111 11.1098182 27.7126074 10.3803857 28.6791185 9.67900826 29.6456296 9.0197135 30.6401556 8.43055647 31.6346815 7.88348209 32.6011926 7.40654545 33.5677037 6.98571901 34.5202074 6.6350303 35.4446963 6.34045179 36.3551778 6.11601102 37.2516519 5.96170799 38.1201111 5.8494876 38.6523926 5.82143251"></polygon>
                </g>
            </g>
        </g>
    </g>
</svg>