<?xml version="1.0" encoding="UTF-8"?>
<svg width="115px" height="118px" viewBox="0 0 115 118" version="1.1" xmlns="http://www.w3.org/2000/svg" xmlns:xlink="http://www.w3.org/1999/xlink">
    <title>Icon - Refi - Arrow Circling House - 3D@2x</title>
    <defs>
        <linearGradient x1="112.713612%" y1="49.993979%" x2="112.885353%" y2="49.993979%" id="linearGradient-1">
            <stop stop-color="#B38421" offset="0%"></stop>
            <stop stop-color="#C08D1F" offset="17%"></stop>
            <stop stop-color="#FDB515" offset="100%"></stop>
        </linearGradient>
        <linearGradient x1="-0.000755940611%" y1="49.9965841%" x2="100.004328%" y2="49.9983291%" id="linearGradient-2">
            <stop stop-color="#B48F34" offset="0%"></stop>
            <stop stop-color="#B89132" offset="7%"></stop>
            <stop stop-color="#C4982D" offset="13%"></stop>
            <stop stop-color="#D9A224" offset="20%"></stop>
            <stop stop-color="#F5B118" offset="27%"></stop>
            <stop stop-color="#FDB515" offset="29%"></stop>
            <stop stop-color="#FFDD7F" offset="47%"></stop>
            <stop stop-color="#FDB515" offset="66%"></stop>
            <stop stop-color="#FDB515" offset="86%"></stop>
            <stop stop-color="#B48F34" offset="100%"></stop>
        </linearGradient>
        <linearGradient x1="0.00064195036%" y1="49.9941096%" x2="100%" y2="49.9941096%" id="linearGradient-3">
            <stop stop-color="#FFDD7F" offset="0%"></stop>
            <stop stop-color="#FFFFFF" offset="47%"></stop>
            <stop stop-color="#FFDD7F" offset="100%"></stop>
        </linearGradient>
        <linearGradient x1="-0.00142876449%" y1="50.0039063%" x2="158.941347%" y2="50.0039063%" id="linearGradient-4">
            <stop stop-color="#FDB515" offset="6%"></stop>
            <stop stop-color="#FFDD7F" offset="46%"></stop>
            <stop stop-color="#FDB515" offset="100%"></stop>
        </linearGradient>
        <linearGradient x1="-208.157802%" y1="50.0080029%" x2="100.002126%" y2="50.0080029%" id="linearGradient-5">
            <stop stop-color="#FDB515" offset="6%"></stop>
            <stop stop-color="#FFDD7F" offset="46%"></stop>
            <stop stop-color="#FDB515" offset="100%"></stop>
        </linearGradient>
        <linearGradient x1="49.9800471%" y1="55.7362917%" x2="49.9833301%" y2="44.2671369%" id="linearGradient-6">
            <stop stop-color="#D29923" offset="6%"></stop>
            <stop stop-color="#FDB515" offset="54%"></stop>
            <stop stop-color="#FDB618" offset="66%"></stop>
            <stop stop-color="#FDBA22" offset="74%"></stop>
            <stop stop-color="#FEC032" offset="82%"></stop>
            <stop stop-color="#FEC849" offset="89%"></stop>
            <stop stop-color="#FFD366" offset="95%"></stop>
            <stop stop-color="#FFDD7F" offset="100%"></stop>
        </linearGradient>
        <linearGradient x1="49.9891197%" y1="53.0445875%" x2="49.9912697%" y2="46.9566537%" id="linearGradient-7">
            <stop stop-color="#FDB515" offset="0%"></stop>
            <stop stop-color="#FDBA21" offset="18%"></stop>
            <stop stop-color="#FEC641" offset="50%"></stop>
            <stop stop-color="#FFD975" offset="92%"></stop>
            <stop stop-color="#FFDD7F" offset="100%"></stop>
        </linearGradient>
        <linearGradient x1="0%" y1="50.003233%" x2="100%" y2="50.003233%" id="linearGradient-8">
            <stop stop-color="#FFDD7F" offset="0%"></stop>
            <stop stop-color="#FFFFFF" offset="47%"></stop>
            <stop stop-color="#FFDD7F" offset="100%"></stop>
        </linearGradient>
        <linearGradient x1="6.02800893%" y1="48.2363015%" x2="93.718287%" y2="51.8183497%" id="linearGradient-9">
            <stop stop-color="#E4B23B" offset="0%"></stop>
            <stop stop-color="#FDB515" offset="50%"></stop>
            <stop stop-color="#DBAC3B" offset="100%"></stop>
        </linearGradient>
    </defs>
    <g id="Icons" stroke="none" stroke-width="1" fill="none" fill-rule="evenodd">
        <g id="Artboard" transform="translate(-1713.000000, -18.000000)">
            <g id="Icon---Refi---Arrow-Circling-House---3D" transform="translate(1713.000000, 18.000000)">
                <path d="M114.218523,55.7880682 C112.913011,66.8045455 107.271477,75.5197159 107.271477,75.5197159 C116.884432,57.3248864 111.09392,36.3347727 95.9335227,32.7201136 C83.188125,29.6817614 67.8238636,32.300625 49.6721591,40.1689773 C19.3984091,53.2397727 1.84261364,81.2514205 9.4875,98.9365909 L2.03863636,84.5838068 C-5.59056818,66.8986364 12.7336364,41.9488636 42.9877841,28.8819886 C73.2419318,15.8151136 103.194205,20.3001136 110.839091,37.9852841 C110.839091,37.9852841 115.524034,44.7715909 114.218523,55.7880682 Z" id="Path" fill="url(#linearGradient-1)" fill-rule="nonzero"></path>
                <path d="M23.7932386,48.1118182 C18.5538286,50.0056297 13.4956153,52.3674413 8.67988636,55.1686364 C16.6266477,44.6931818 29.7719318,34.6019318 42.7329545,28.9878409 C72.9871023,15.9092045 102.939375,20.4098864 110.584261,38.0950568 C110.584261,38.0950568 115.288807,44.8813636 113.963693,55.8978409 C112.63858,66.9143182 107.028409,75.6255682 107.028409,75.6255682 C116.637443,57.4307386 110.846932,36.4445455 95.6865341,32.8298864 C82.9411364,29.7876136 67.576875,32.4103977 49.4251705,40.27875 C49.3977273,40.2669886 32.8808523,44.7559091 23.7932386,48.1118182 Z" id="Path" fill="url(#linearGradient-2)" fill-rule="nonzero"></path>
                <path d="M109.835455,37.2992045 C101.390795,21.3703977 71.6149432,18.0184091 43.3053409,30.2423864 C14.9957386,42.4663636 -2.15232955,65.8165909 5.0025,82.3844318 L5.0025,82.3844318 C-2.64238636,64.7031818 14.1998864,42.1997727 43.3327841,29.6151136 C69.7292045,18.2065909 101.763239,19.8061364 109.835455,37.2992045 Z" id="Path" fill="url(#linearGradient-3)" fill-rule="nonzero"></path>
                <polygon id="Path" fill="#2C3E50" points="109.690398 72.0265909 63.8093182 45.5360795 8.31136364 77.5505114 54.1924432 104.037102"></polygon>
                <polygon id="Path" fill="#2C3E50" points="54.1924432 104.037102 8.31136364 77.5505114 8.30744318 80.9495455 54.1885227 107.440057"></polygon>
                <polygon id="Path" fill="#3D566E" points="54.1885227 107.440057 109.686477 75.425625 109.690398 72.0265909 54.1924432 104.037102"></polygon>
                <polygon id="Path" fill="#CFD1D1" points="54.0983523 68.8745455 21.9780682 50.3347159 21.9623864 78.6560795 54.07875 97.1959091"></polygon>
                <polygon id="Path" fill="#CFD1D1" points="75.8843182 25.44375 43.7679545 6.9 17.3284091 53.0202273 49.4486932 71.5600568"></polygon>
                <polygon id="Path" fill="#E6EAEB" points="97.8388636 71.9521023 97.8388636 43.6464205 102.492443 40.9609091 75.8843182 25.44375 49.4486932 71.5600568 54.0983523 68.8745455 54.07875 97.1998295"></polygon>
                <polygon id="Path" fill="#999999" points="68.4550568 88.9041477 82.7843182 80.6398295 82.7921591 53.4985227 68.4589773 61.7628409"></polygon>
                <polygon id="Path" fill="#666565" points="69.77625 88.1396591 81.4592045 81.4003977 81.4670455 56.0664205 69.7840909 62.8096023"></polygon>
                <polygon id="Path" fill="#7CCCBD" points="69.77625 86.4146591 79.9655114 80.5378977 79.9694318 56.9289205 69.7840909 62.8096023"></polygon>
                <path d="M36.7503409,61.2296591 L42.8544886,64.7580682 L42.9328977,64.8051136 L43.0034659,64.86 L43.0740341,64.9266477 L43.1446023,64.989375 L43.2073295,65.0677841 L43.2700568,65.1422727 L43.3249432,65.2246023 L43.3759091,65.3108523 L43.3759091,65.3108523 L43.4229545,65.3971023 L43.4660795,65.4872727 L43.5052841,65.5813636 L43.5366477,65.6715341 L43.5601705,65.765625 L43.5601705,65.8557955 L43.5601705,65.9498864 L43.5601705,81.7493182 L43.5601705,81.8277273 L43.5601705,81.9022159 L43.5366477,81.9649432 L43.5052841,82.0198295 L43.4660795,82.066875 L43.4229545,82.1139205 L43.3759091,82.1413636 L42.3997159,82.7059091 L42.4467614,82.6784659 L42.4859659,82.6314205 L42.5290909,82.584375 L42.5604545,82.5294886 L42.5839773,82.4628409 L42.5839773,82.3922727 L42.5839773,82.3138636 L42.5839773,82.2315341 L42.5839773,66.5928409 L42.5839773,66.5065909 L42.5839773,66.4125 L42.5839773,66.3184091 L42.5604545,66.2282386 L42.5290909,66.1380682 L42.4898864,66.0439773 L42.4506818,65.9538068 L42.4036364,65.8675568 L42.4036364,65.8675568 L42.3526705,65.7813068 L42.2938636,65.6989773 L42.2350568,65.6244886 L42.1684091,65.5460795 L42.1017614,65.4794318 L42.0311932,65.4167045 L41.9567045,65.3618182 L41.8822159,65.3147727 L35.7819886,61.7863636 L34.4490341,61.0022727 L28.3448864,57.4738636 L28.2703977,57.4307386 L28.1998295,57.4072159 L28.1253409,57.3836932 L28.0626136,57.3836932 L27.9920455,57.3836932 L27.9332386,57.3836932 L27.8783523,57.3836932 L27.8273864,57.4111364 L28.8035795,56.8465909 L28.8545455,56.8191477 L28.9133523,56.8191477 L28.9721591,56.8191477 L29.0348864,56.8191477 L29.1054545,56.8191477 L29.1721023,56.83875 L29.2465909,56.8661932 L29.325,56.9093182 L35.4252273,60.4377273 L36.7542614,61.2218182 L36.7503409,61.2296591 Z M35.6447727,62.8880114 L35.62125,62.9076136 L35.62125,62.9311364 L35.62125,62.9703409 L35.62125,77.7386932 L35.62125,77.7896591 L35.62125,77.8367045 L35.6447727,77.8798295 L35.6722159,77.9190341 L35.7035795,77.9582386 L35.7349432,77.9896023 L35.7780682,78.013125 L41.4705682,81.3023864 L41.5058523,81.3219886 L41.5450568,81.3219886 L41.5764205,81.3219886 L41.5999432,81.3219886 L42.5800568,80.7574432 L42.5526136,80.7574432 L42.5173295,80.7574432 L42.4820455,80.7574432 L42.4506818,80.7574432 L36.7503409,77.4642614 L36.7189773,77.4407386 L36.6797727,77.409375 L36.6484091,77.3701705 L36.6209659,77.3309659 L36.5974432,77.2878409 L36.5974432,77.2407955 L36.5974432,77.19375 L36.5974432,62.4057955 L36.5974432,62.3665909 L36.5974432,62.3430682 L36.6209659,62.3234659 L35.6447727,62.8880114 Z M35.4213068,76.6880114 L29.7288068,73.39875 L29.6896023,73.3713068 L29.6582386,73.3399432 L29.6229545,73.3007386 L29.5955114,73.2576136 L29.5955114,73.2105682 L29.5955114,73.1674432 L29.5955114,73.1243182 L29.5955114,73.0772727 L29.5955114,64.3581818 L29.5955114,64.3150568 L29.5955114,64.2836932 L29.5955114,64.25625 L29.5955114,64.2366477 L28.6193182,64.8011932 L28.5957955,64.8207955 L28.5957955,64.8443182 L28.5957955,64.8835227 L28.5957955,73.7045455 L28.5957955,73.7476705 L28.5957955,73.7907955 L28.6193182,73.8378409 L28.6467614,73.8809659 L28.6742045,73.9201705 L28.7094886,73.9515341 L28.7447727,73.9789773 L34.4451136,77.2329545 L34.4843182,77.2329545 L34.5156818,77.2329545 L34.5509659,77.2329545 L34.5784091,77.2329545 L35.5546023,76.6684091 L35.5232386,76.6684091 L35.491875,76.6684091 L35.4644318,76.6684091 L35.4213068,76.6684091 L35.4213068,76.6880114 Z M35.4213068,66.4281818 L29.7288068,63.1428409 L29.6896023,63.1193182 L29.6582386,63.0840341 L29.6229545,63.04875 L29.5955114,63.0017045 L29.5955114,62.9585795 L29.5955114,62.9154545 L29.5955114,62.8684091 L29.5955114,62.8252841 L29.5955114,58.3873295 L29.5955114,58.3442045 L29.5955114,58.3128409 L29.5955114,58.2853977 L29.5955114,58.2853977 L28.6193182,58.8303409 L28.5957955,58.8499432 L28.5957955,58.8773864 L28.5957955,58.90875 L28.5957955,63.4329545 L28.5957955,63.48 L28.5957955,63.523125 L28.6193182,63.5701705 L28.6467614,63.609375 L28.6742045,63.6485795 L28.7094886,63.6838636 L28.7447727,63.7073864 L34.4411932,66.9966477 L34.4803977,66.9966477 L34.5117614,66.9966477 L34.5470455,66.9966477 L34.5744886,66.9966477 L35.5506818,66.4321023 L35.5193182,66.4321023 L35.4879545,66.4321023 L35.4605114,66.4321023 L35.4213068,66.4281818 Z" id="Shape" fill="#D19917"></path>
                <path d="M36.2328409,62.6371023 L36.2328409,77.3270455 C36.2386949,77.4576536 36.30927,77.576749 36.4210227,77.6446023 L42.1135227,80.9299432 C42.2154545,80.9926705 42.2977841,80.9299432 42.2977841,80.8280114 L42.2977841,66.1380682 C42.2940751,66.0068136 42.2249034,65.8861312 42.1135227,65.8165909 L36.4210227,62.53125 C36.3190909,62.4724432 36.2328409,62.5194886 36.2328409,62.6371023 Z" id="Path" fill="#2192FC"></path>
                <path d="M35.2840909,76.7703409 L35.2840909,68.05125 C35.2778235,67.9228124 35.2089693,67.8056137 35.0998295,67.7376136 L29.4034091,64.4444318 C29.3014773,64.3895455 29.2230682,64.4444318 29.2230682,64.5502841 L29.2230682,73.269375 C29.2272005,73.3984719 29.2946547,73.5172499 29.4034091,73.5869318 L35.0998295,76.8801136 C35.19,76.935 35.2840909,76.8879545 35.2840909,76.7703409 Z" id="Path" fill="#2192FC"></path>
                <path d="M35.2840909,66.5144318 L35.2840909,62.0843182 C35.2803819,61.9530636 35.2112103,61.8323812 35.0998295,61.7628409 L29.4034091,58.4735795 C29.3014773,58.4147727 29.2230682,58.4735795 29.2230682,58.5794318 L29.2230682,63.0173864 C29.2303593,63.1466311 29.296913,63.2652704 29.4034091,63.3388636 L35.0998295,66.6242045 C35.19,66.6830114 35.2840909,66.6477273 35.2840909,66.5144318 Z" id="Path" fill="#2192FC"></path>
                <path d="M35.7780682,61.7902841 L41.8782955,65.3186932 C42.0971936,65.4545031 42.2769088,65.6450283 42.3997159,65.8714773 L42.3997159,65.8714773 C42.5323258,66.0908681 42.6065577,66.3405572 42.6153409,66.5967614 L42.6153409,82.2276136 C42.6341196,82.4139396 42.5499913,82.5957169 42.3957955,82.7019886 C42.2263787,82.7852084 42.0244706,82.7654731 41.874375,82.6510227 L35.7741477,79.1226136 L34.4411932,78.3385227 L28.3370455,74.8101136 C28.1288173,74.6776165 27.9564603,74.4958337 27.8352273,74.2808523 L27.8352273,74.2808523 C27.7045006,74.0620624 27.6303903,73.8141297 27.6196023,73.5594886 L27.6196023,57.9286364 C27.6002018,57.7411166 27.6843094,57.5578822 27.8391477,57.4503409 C28.0078398,57.3705541 28.2067612,57.3901448 28.3566477,57.5013068 L34.4607955,61.0297159 L35.79375,61.8138068 L35.7780682,61.7902841 Z M34.6332955,66.886875 L34.6332955,62.4528409 C34.6274415,62.3222328 34.5568664,62.2031374 34.4451136,62.1352841 L28.7486932,58.8421023 C28.7131314,58.8102465 28.6610572,58.8050292 28.6198825,58.829197 C28.5787079,58.8533647 28.5578758,58.9013748 28.5683523,58.9479545 L28.5683523,63.3898295 C28.5762431,63.5178391 28.6427981,63.6350336 28.7486932,63.7073864 L34.4451136,66.9966477 C34.5470455,67.0515341 34.6332955,66.9966477 34.6332955,66.886875 L34.6332955,66.886875 Z M34.6332955,77.1427841 L34.6332955,68.4236932 C34.6274415,68.2930851 34.5568664,68.1739896 34.4451136,68.1061364 L28.7486932,64.816875 C28.6506818,64.7580682 28.5683523,64.816875 28.5683523,64.9227273 L28.5683523,73.6418182 C28.5756434,73.771063 28.6421971,73.8897022 28.7486932,73.9632955 L34.4451136,77.2329545 C34.4813568,77.2660041 34.5347094,77.2720844 34.5774596,77.2480374 C34.6202099,77.2239904 34.6427189,77.1752379 34.6332955,77.1271023 L34.6332955,77.1427841 Z M35.5898864,63.005625 L35.5898864,77.6955682 C35.5957403,77.8261763 35.6663154,77.9452717 35.7780682,78.013125 L41.4705682,81.3023864 C41.5764205,81.3651136 41.6548295,81.3023864 41.6548295,81.2004545 L41.6548295,66.5105114 C41.6490616,66.3787966 41.5805533,66.2578139 41.4705682,66.1851136 L35.7780682,62.8997727 C35.6761364,62.8409659 35.5898864,62.8880114 35.5898864,63.005625 Z" id="Shape" fill="#FAC13C"></path>
                <polygon id="Path" fill="#D14232" points="78.0484091 27.211875 40.8001705 5.70034091 68.4785795 21.8447727 105.726818 43.3484659"></polygon>
                <polygon id="Path" fill="#E74C3C" points="78.0366477 21.4997727 40.7884091 0 8.39369318 56.4976705 45.6458523 78.0092045"></polygon>
                <polygon id="Path" fill="#C0392B" points="105.722898 43.3484659 110.635227 40.5139773 78.0366477 21.4997727 45.6458523 78.0092045 50.5542614 75.1747159 78.0484091 27.2079545"></polygon>
                <path d="M4.99857955,82.5373295 C1.70539773,74.9238068 3.55977273,65.8753977 9.27971591,57.1288636 L9.33460227,57.0465341 C9.33460227,57.0465341 8.84846591,56.7564205 8.40153409,56.5172727 C8.53424379,56.2611776 8.68082521,56.0125126 8.840625,55.7723864 L11.5849432,50.9384659 C11.5849432,50.9384659 8.75045455,54.1375568 8.51914773,54.4198295 C0.713522727,64.6875 -2.17585227,75.6647727 1.73676136,84.7014205 C9.38164773,102.38267 41.9057386,105.507273 72.1559659,92.4286364 L70.1055682,89.9940341 C41.7959659,102.233693 12.1534091,99.0855682 4.99857955,82.5373295 Z" id="Path" fill="url(#linearGradient-4)" fill-rule="nonzero"></path>
                <path d="M111.752557,36.9424432 C106.879432,26.3925 93.75375,20.9195455 77.4681818,21.1116477 C78.2522727,21.5546591 80.9417045,23.1228409 80.9025,23.1189205 L81.0867614,23.1189205 C94.4947159,23.9030114 105.272045,28.8427841 109.827614,37.4442614 C116.621761,50.2602273 112.850284,67.2397159 106.883352,76.1430682 C113.461875,66.5301136 117.89983,50.2680682 111.752557,36.9424432 Z" id="Path" fill="url(#linearGradient-5)" fill-rule="nonzero"></path>
                <path d="M8.91903409,98.7954545 C16.5639205,116.480625 47.2885227,120.212898 77.5269886,107.130341 L79.5264205,117.856705 L100.30483,85.9520455 L62.3783523,84.4113068 L72.1167614,92.2286932 C41.8626136,105.30733 9.18954545,102.112159 1.54857955,84.4269886 L8.91903409,98.7954545 Z" id="Path" fill="url(#linearGradient-6)" fill-rule="nonzero"></path>
                <path d="M8.91903409,98.7954545 C33.4101136,127.210909 100.296989,85.9520455 100.296989,85.9520455 L62.3705114,84.4152273 L72.1089205,92.2326136 C41.8547727,105.31125 9.18170455,102.112159 1.54073864,84.4309091 L8.91903409,98.7954545 Z" id="Path" fill="url(#linearGradient-7)" fill-rule="nonzero"></path>
                <path d="M1.63875,84.3328977 C5.68465909,93.6871023 18.7280114,99.230625 33.7472727,99.0542045 C45.2969318,98.9209091 59.7555682,97.3840909 72.0579545,92.0601136 L72.0579545,92.0601136 C41.8077273,105.14267 9.28363636,102.018068 1.63875,84.3328977 Z" id="Path" fill="url(#linearGradient-8)" fill-rule="nonzero"></path>
                <polygon id="Path" fill="url(#linearGradient-9)" fill-rule="nonzero" points="62.3273864 84.4857955 61.625625 82.3726705 99.3913636 84.1015909 100.257784 86.0226136"></polygon>
            </g>
        </g>
    </g>
</svg>